External Loads File
version=1
nRows=38
nColumns=13
Range=5.000000e-03-10 seconds
endheader
time 	forceRightX 	forceRightY 	forceRightZ 	pointRightX 	pointRightY 	pointRightZ 	forceLeftX 	forceLeftY 	forceLeftZ 	pointLeftX 	pointLeftY 	pointLeftZ 		
0.005000 -33.279928 198.883789 -0.000000 0.352926 0.452803 -0.110404 -36.769852 237.479800 -0.000000 0.105601 0.195228 -0.352713
0.010000 -33.473678 199.431827 -0.000000 0.352872 0.452867 -0.110414 -34.960088 239.458764 -0.000000 0.105595 0.195274 -0.352715
0.015000 -33.614160 200.020074 -0.000000 0.352848 0.452837 -0.110422 -33.261536 241.281032 -0.000000 0.105570 0.195298 -0.352699
0.020000 -32.943752 200.765663 -0.000000 0.352881 0.452814 -0.110437 -30.891769 242.944657 -0.000000 0.105508 0.197236 -0.352705
0.025000 -32.124732 201.540657 -0.000000 0.352935 0.452835 -0.110534 -28.698955 244.285234 -0.000000 0.103997 0.198075 -0.354796
0.030000 -33.393217 201.971899 -0.000000 0.352883 0.452775 -0.110360 -29.381741 245.003449 -0.000000 0.105372 0.196660 -0.352699
0.035000 -33.856720 202.511227 -0.000000 0.353017 0.452734 -0.110379 -29.352269 245.579713 -0.000000 0.105246 0.195586 -0.352687
0.040000 -33.888252 203.084015 -0.000000 0.353063 0.452663 -0.110375 -28.949317 246.044539 -0.000000 0.105111 0.195687 -0.352691
0.045000 -33.924952 203.605828 -0.000000 0.353128 0.452582 -0.110356 -28.612181 246.409188 -0.000000 0.104959 0.195801 -0.352694
0.050000 -33.927104 204.087630 -0.000000 0.353222 0.452449 -0.110383 -28.241006 246.733415 -0.000000 0.104768 0.195955 -0.352691
0.055000 -33.967221 204.538867 -0.000000 0.353311 0.452326 -0.110401 -27.907270 247.050028 -0.000000 0.104577 0.196080 -0.352683
0.060000 -33.972483 204.997576 -0.000000 0.353436 0.452193 -0.110381 -27.542507 247.395900 -0.000000 0.104378 0.196242 -0.352706
0.065000 -33.985026 205.471833 -0.000000 0.353449 0.452039 -0.110566 -27.228568 247.778528 -0.000000 0.104149 0.196404 -0.352698
0.070000 -33.910835 205.974818 -0.000000 0.353625 0.451878 -0.110518 -26.864798 248.220397 -0.000000 0.103927 0.196567 -0.352709
0.075000 -33.839376 206.476710 -0.000000 0.353777 0.451732 -0.110547 -26.555069 248.710013 -0.000000 0.103700 0.196737 -0.352702
0.080000 -33.785789 206.956846 -0.000000 0.353845 0.451563 -0.110548 -26.306467 249.236755 -0.000000 0.103457 0.196929 -0.352700
0.085000 -33.702758 207.405544 -0.000000 0.354012 0.451345 -0.110555 -26.043865 249.802713 -0.000000 0.103241 0.197110 -0.352687
0.090000 -33.645091 207.799418 -0.000000 0.354167 0.451147 -0.110520 -25.816283 250.396531 -0.000000 0.103015 0.197293 -0.352672
0.095000 -33.614182 208.137829 -0.000000 0.354315 0.450936 -0.110525 -25.622693 251.002332 -0.000000 0.102809 0.197454 -0.352666
0.100000 -33.611966 208.441532 -0.000000 0.354448 0.450805 -0.110532 -25.483016 251.593091 -0.000000 0.102611 0.197638 -0.352659
0.105000 -33.603146 208.745585 -0.000000 0.354580 0.450645 -0.110525 -25.389559 252.136756 -0.000000 0.102425 0.197752 -0.352630
0.110000 -33.569261 209.069033 -0.000000 0.354690 0.450526 -0.110494 -25.349463 252.603160 -0.000000 0.102261 0.197898 -0.352636
0.115000 -33.496407 209.408367 -0.000000 0.354806 0.450386 -0.110485 -25.345105 252.978191 -0.000000 0.102121 0.198009 -0.352629
0.120000 -33.417679 209.737447 -0.000000 0.354910 0.450284 -0.110474 -25.389079 253.252630 -0.000000 0.101997 0.198116 -0.352626
0.125000 -33.318899 210.031720 -0.000000 0.355016 0.450153 -0.110451 -25.427334 253.433333 -0.000000 0.101883 0.198239 -0.352616
0.130000 -33.250757 210.255188 -0.000000 0.355130 0.450012 -0.110464 -25.486539 253.531931 -0.000000 0.101778 0.198341 -0.352624
0.135000 -33.241975 210.380288 -0.000000 0.355259 0.449890 -0.110439 -25.576876 253.566391 -0.000000 0.101685 0.198448 -0.352607
0.140000 -33.291758 210.394740 -0.000000 0.355423 0.449771 -0.110396 -25.670851 253.568806 -0.000000 0.101587 0.198557 -0.352603
0.145000 -33.426641 210.290427 -0.000000 0.355584 0.449666 -0.110375 -25.764051 253.582170 -0.000000 0.101497 0.198686 -0.352586
0.150000 -33.618788 210.073403 -0.000000 0.355761 0.449529 -0.110355 -25.807853 253.646397 -0.000000 0.101422 0.198821 -0.352582
0.155000 -33.880471 209.755042 -0.000000 0.355904 0.449407 -0.110318 -25.847529 253.771270 -0.000000 0.101348 0.198934 -0.352565
0.160000 -34.166908 209.374017 -0.000000 0.356026 0.449300 -0.110303 -25.887505 253.946953 -0.000000 0.101305 0.199033 -0.352557
0.165000 -34.446243 208.977726 -0.000000 0.356140 0.449225 -0.110287 -25.940475 254.145474 -0.000000 0.101287 0.199092 -0.352526
0.170000 -34.681146 208.608267 -0.000000 0.356232 0.449182 -0.110263 -25.978982 254.344255 -0.000000 0.101298 0.199149 -0.352514
0.175000 -34.838179 208.289346 -0.000000 0.356297 0.449102 -0.110234 -25.951931 254.523743 -0.000000 0.101312 0.199179 -0.352517
0.180000 -34.957410 208.013547 -0.000000 0.356347 0.449079 -0.110215 -25.892911 254.650595 -0.000000 0.101344 0.199210 -0.352516
0.185000 -35.040677 207.768648 -0.000000 0.356387 0.449049 -0.110184 -25.786498 254.712543 -0.000000 0.101389 0.199218 -0.352518
0.190000 -35.094986 207.540536 -0.000000 0.356422 0.449016 -0.110168 -25.616384 254.726869 -0.000000 0.101435 0.199237 -0.352510
